<svg width="29" height="25" viewBox="0 0 29 25" fill="none" xmlns="http://www.w3.org/2000/svg">
<path d="M15.1737 22.9825L25.2987 12.8575C27.7862 10.3575 28.1487 6.27005 25.7987 3.65755C25.2093 2.99918 24.4919 2.4679 23.6903 2.09615C22.8887 1.7244 22.0197 1.52 21.1364 1.49543C20.2531 1.47087 19.3741 1.62665 18.5531 1.95326C17.732 2.27987 16.9862 2.77046 16.3612 3.39505L14.4612 5.30755L12.8237 3.65755C10.3237 1.17005 6.23617 0.807547 3.62367 3.15755C2.96531 3.7469 2.43402 4.46431 2.06228 5.26592C1.69053 6.06754 1.48613 6.93653 1.46156 7.81981C1.43699 8.70309 1.59277 9.5821 1.91939 10.4031C2.246 11.2242 2.73659 11.97 3.36117 12.595L13.7487 22.9825C13.9383 23.1703 14.1943 23.2757 14.4612 23.2757C14.728 23.2757 14.9841 23.1703 15.1737 22.9825Z" stroke="#92000E" stroke-width="2" stroke-linecap="round" stroke-linejoin="round"/>
<path d="M18.4023 6.58231C18.2962 7.01067 16.8298 12.3095 17.0663 9.52156C17.1401 8.65196 17.0204 6.63597 17.721 5.95438C18.327 5.36471 19.9629 6.39575 20.4598 6.66247C22.3549 7.67971 21.0397 9.22364 19.6047 8.50618" stroke="#92000E" stroke-width="3" stroke-linecap="round"/>
<path d="M13.1454 15.6826C13.4969 15.6947 13.8564 15.4127 14.1294 15.2295C14.7546 14.81 15.3929 14.3414 15.8708 13.7536C16.2702 13.2624 17.2039 12.1106 16.9326 11.3999C16.8513 11.187 16.5098 11.3119 16.4088 11.3362C15.7778 11.4877 15.1886 11.7191 14.5223 11.6193C13.2391 11.4272 13.8575 10.2 14.0091 9.37535C14.133 8.70094 14.1802 7.90982 13.7401 7.33666C13.1574 6.57779 12.552 5.97069 11.7792 5.4006C11.2354 4.99943 10.716 4.64158 10.1263 4.31401C9.5418 3.98927 8.98489 3.43693 8.30354 3.33006C7.39338 3.18729 6.82658 3.3526 6.00293 3.70877C5.54438 3.90706 5.05973 4.11134 4.67212 4.43435C4.31502 4.73193 4.06559 5.13446 3.7908 5.50325C3.45636 5.95211 3.22808 6.39079 3.14309 6.9544C3.04508 7.60438 2.97201 8.45878 3.12186 9.10636C3.31938 9.95992 3.83298 10.7024 4.30402 11.4211C4.90552 12.3389 5.48373 13.423 6.23653 14.2243C6.76777 14.7898 7.39587 15.2647 7.92836 15.8312C8.43349 16.3686 9.07106 16.7765 9.54233 17.339C10.0365 17.9288 10.6955 18.2995 11.3757 18.6415C11.8735 18.8918 11.9788 18.8854 12.1898 19.3777" stroke="#92000E" stroke-width="3" stroke-linecap="round"/>
<path d="M13.5914 21.5438C13.7344 21.383 13.764 21.1823 13.8144 20.981C13.895 20.6585 13.0921 20.708 12.9047 20.6731C12.1846 20.5389 11.4595 20.0217 11.1209 19.3706C10.9005 18.9468 10.6771 18.5448 10.5192 18.0893C10.3885 17.7122 10.3004 17.5415 10.7776 17.4699C11.7394 17.3257 12.7892 17.3728 13.4003 18.1672" stroke="#92000E" stroke-width="3" stroke-linecap="round"/>
<path d="M14.993 21.3527C15.1166 20.6851 15.3301 19.9494 15.7504 19.406C16.2473 18.7638 17.0483 18.1403 17.7325 17.6965C17.7631 17.6767 17.8066 17.624 17.8316 17.6505C17.9275 17.752 17.7036 17.9003 17.6192 18.0115C17.3478 18.3692 17.0415 18.6975 16.7415 19.0308C16.5531 19.2402 16.3653 19.446 16.2318 19.6962C16.166 19.8196 16.0606 20.2245 16.0761 20.0856C16.1764 19.1826 16.8694 18.5152 17.6263 18.0964C17.8203 17.9891 18.0252 17.9015 18.2316 17.8204C18.4196 17.7464 18.8364 17.5193 18.8297 17.7213C18.8205 17.9985 17.8778 18.4386 17.6829 18.645C17.4212 18.9224 17.3564 19.3427 17.0848 19.6007C16.4211 20.2312 17.0419 18.4729 17.0529 18.4433C17.6235 16.9172 18.3885 15.3916 19.9128 14.6561C20.3411 14.4495 20.7927 14.2958 21.2188 14.0828C21.712 13.8362 22.0661 13.5176 22.4718 13.1554C23.044 12.6445 23.654 12.194 24.1777 11.63C24.5841 11.1923 25.0286 10.7872 25.4838 10.4018C25.9551 10.0028 26.0746 9.68928 26.0784 9.06389C26.0817 8.51799 25.9749 8.00339 25.7917 7.49239C25.628 7.03581 25.4731 6.58437 25.2927 6.13327C25.0559 5.54142 24.6456 5.13938 24.199 4.69273C23.5527 4.04648 22.7943 3.09126 21.817 2.95488C20.6867 2.79717 19.4278 3.35925 18.5572 4.03086C17.6108 4.76096 16.718 5.56644 15.7221 6.23237C14.999 6.71591 14.1955 7.04629 13.379 7.33666C13.1321 7.4245 12.4373 7.52684 12.2464 7.74369C12.2042 7.79165 13.5879 8.25879 13.6374 8.27814C14.6579 8.6772 15.2155 9.36018 15.8708 10.1965C16.1992 10.6157 16.4132 10.681 16.9114 10.3876C17.7146 9.91454 18.4513 9.20793 18.8297 8.34893C19.2616 7.36869 19.5846 6.36293 20.2455 5.49617C20.8289 4.73105 21.8826 5.29245 22.4222 5.80056C23.2008 6.53371 23.3817 7.28768 23.1513 8.32061C22.7475 10.1313 20.3994 10.7183 19.0421 11.6547C17.8097 12.505 16.6601 13.4834 16.0265 14.8614C15.7042 15.5625 15.4625 16.3014 15.1841 17.0205" stroke="#92000E" stroke-width="3" stroke-linecap="round"/>
<path d="M14.993 17.339C15.8243 16.3165 16.302 15.6584 17.2582 14.7552C18.1289 13.9328 19.1075 13.2959 20.1322 12.6917C21.0764 12.1351 21.95 11.4603 22.7408 10.6991C23.2067 10.2505 23.4454 9.98137 23.8274 9.46027C23.9701 9.2655 24.0979 9.06016 24.2308 8.85857C24.3173 8.72744 24.3923 8.58845 24.4857 8.46216C24.5204 8.41519 24.5638 8.31046 24.6131 8.34182C24.7727 8.44339 24.3007 9.34672 24.2839 9.37533C23.8818 10.06 23.2826 10.6352 22.7089 11.1733C22.5854 11.2892 21.8447 11.9551 21.6258 12.0794C21.5508 12.1221 21.4357 12.1826 21.371 12.1254C21.1208 11.9043 21.3908 11.4493 21.4914 11.1309C21.6982 10.4758 21.981 9.74297 22.447 9.21959C22.7941 8.82973 22.6169 9.5478 22.6169 9.61954C22.6169 10.1853 23.395 9.09527 23.1407 9.67971C23.0502 9.88763 22.8722 10.2529 22.6381 10.331" stroke="#92000E" stroke-width="3" stroke-linecap="round"/>
<path d="M22.0647 11.6052C22.4169 10.9007 23.4495 8.8057 22.9496 9.4143C22.4582 10.0125 23.1888 9.5791 23.4168 9.49571C23.6308 9.41739 23.1359 9.85566 23.0133 10.0479C22.5246 10.814 22.1465 11.6356 21.6966 12.4228C21.5827 12.6222 21.4438 12.7708 21.3002 12.9431" stroke="#92000E" stroke-width="3" stroke-linecap="round"/>
<path d="M12.6358 15.4914C11.8678 15.272 11.0801 14.3682 10.5404 13.8421C9.42943 12.7588 8.35121 11.6363 7.24881 10.5434C6.54641 9.84701 5.62488 9.03839 5.34461 8.04809C5.10026 7.18472 5.62242 6.30951 6.48429 6.04479C7.79658 5.64173 8.87218 7.16276 9.40784 8.12242C9.85618 8.92564 10.0935 9.81202 10.4767 10.6425C10.7408 11.2146 11.1059 11.6856 11.5173 12.1573C11.8476 12.5361 12.4489 13.5084 12.7136 12.5856C13.1444 11.0845 11.8622 10.1258 11.0112 9.08867C10.6246 8.61747 10.4105 8.32032 10.0874 7.82511C9.8822 7.51061 9.71958 7.05092 9.24503 7.13138C8.39117 7.27617 7.80103 8.05794 7.55673 8.82676C7.26662 9.73977 7.4357 10.651 7.63106 11.5698C7.94375 13.0404 8.19454 14.9428 9.49986 15.8949C9.8234 16.1309 10.4137 16.6316 10.8236 16.6771C11.2493 16.7244 11.6555 16.0047 11.8288 15.7675C12.3409 15.0667 12.7756 14.2671 13.4003 13.6545C13.7176 13.3433 14.0817 13.3531 14.4904 13.3112C15.0674 13.252 15.0659 13.5915 15.3116 14.0261" stroke="#92000E" stroke-width="3" stroke-linecap="round"/>
<path d="M20.1534 16.7019C20.1393 16.4543 20.2122 16.2217 20.2879 15.987C20.3219 15.8818 20.3558 15.7762 20.4012 15.6755C20.4903 15.4781 20.4868 15.6469 20.4649 15.7534C20.1829 17.1258 18.7107 16.979 17.6051 17.1479" stroke="#92000E" stroke-width="3" stroke-linecap="round"/>
<path d="M12.6358 18.1672C12.4055 18.1915 12.2703 18.3676 12.0836 18.4858C11.8358 18.6426 11.5984 18.6769 11.3156 18.6769C11.0548 18.6769 10.7941 18.6769 10.5334 18.6769" stroke="#92000E" stroke-width="3" stroke-linecap="round"/>
<path d="M7.02595 11.3995C7.12005 11.5332 7.29226 11.6479 7.29226 11.8114C7.29226 11.8668 7.19367 11.7501 7.1383 11.749C7.0993 11.7483 7.12175 11.8401 7.12166 11.8405C7.11968 11.8496 7.07837 11.8522 7.08005 11.8655C7.09248 11.965 7.29168 12.1848 7.08005 11.9446C6.95509 11.8027 6.83819 11.716 6.6889 11.6242" stroke="#92000E" stroke-width="3" stroke-linecap="round"/>
<path d="M20.3206 2.56134C20.0801 2.71436 19.7043 2.72556 19.4343 2.79852C19.1537 2.87436 18.9453 2.98281 18.7228 3.1647C18.4618 3.37802 18.2161 3.61374 17.9613 3.83463" stroke="#92000E" stroke-width="3" stroke-linecap="round"/>
<path d="M21.3318 14.3955C21.7223 14.3239 22.0584 14.2405 22.3928 14.0147C22.5945 13.8786 22.6735 13.7433 22.3887 13.9086C22.1978 14.0194 22.0122 14.1986 21.8061 14.281C21.7468 14.3048 21.8315 14.1549 21.8561 14.0959" stroke="#92000E" stroke-width="3" stroke-linecap="round"/>
<path d="M22.2305 13.8712C22.1123 14.0491 22.0322 14.3641 21.8186 14.3622C21.7248 14.3613 21.7754 14.0972 21.7811 14.0875C21.8139 14.0324 21.8975 14.1444 21.9601 14.1583C22.2629 14.2256 21.9733 14.0234 22.3054 13.9835" stroke="#92000E" stroke-width="3" stroke-linecap="round"/>
</svg>
